<svg width="114" height="166" viewBox="0 0 114 166" fill="none" xmlns="http://www.w3.org/2000/svg">
<path d="M53.4134 131.268C55.2561 133.111 58.0203 133.111 59.8631 131.268L95.5669 95.3343C97.1793 93.9523 100.404 93.7219 102.017 95.3343L112.613 105.93C114.225 107.543 114.686 110.307 112.613 111.919L60.0934 164.438C58.2507 166.281 55.4865 166.281 53.6437 164.438L1.1246 111.919C-0.487831 110.307 -0.257484 107.543 1.1246 105.93L11.7206 95.3343C13.333 93.9523 16.0972 93.7219 17.7096 95.3343L53.6437 131.268H53.4134ZM40.2836 105.239C31.3001 96.2557 31.3001 81.7439 40.2836 72.53C54.7955 58.0181 79.4426 68.3837 79.4426 88.6543C79.4426 108.925 55.0258 119.751 40.2836 105.009V105.239ZM44.6602 56.636C38.2105 50.1863 38.2105 39.5904 44.6602 33.1406C55.0258 22.775 72.9929 30.1461 72.9929 44.8883C72.9929 59.6306 55.0258 67.0017 44.6602 56.636ZM47.885 20.4716C43.2781 15.6343 43.2781 8.26316 47.885 3.42588C55.2561 -3.94523 68.3859 1.35275 68.3859 11.9487C68.3859 22.5447 55.2561 28.3034 47.885 20.4716Z" fill="#185C9E"/>
</svg>
