<svg width="128" height="73" viewBox="0 0 128 73" fill="none" xmlns="http://www.w3.org/2000/svg">
<g clip-path="url(#clip0)">
<path d="M0.133301 48.6146L3.21908 34.6537C3.07213 34.1387 2.66805 33.1455 2.00681 31.674C2.00681 31.4164 2.31906 31.1773 2.94356 30.9566C4.78033 30.2576 5.95587 29.9082 6.47016 29.9082C7.02119 29.9082 7.29671 30.0737 7.29671 30.4048C5.9375 33.7892 5.00074 36.1436 4.48645 37.468C4.48645 37.5783 4.48645 37.6887 4.48645 37.7991C4.48645 38.9395 4.32114 39.5097 3.99052 39.5097C3.91705 39.5097 3.86195 39.4545 3.82521 39.3441C3.05377 41.6617 2.5211 43.354 2.22722 44.4208C3.91705 41.6617 5.64361 39.2522 7.40691 37.1921C10.1621 33.9916 12.4397 32.3913 14.2397 32.3913C15.0846 32.3913 15.5071 32.7224 15.5071 33.3846C15.5071 33.6421 14.4417 37.6887 12.3111 45.5244C14.4417 43.9426 16.0948 42.2503 17.2704 40.4478C17.4541 40.227 17.5826 40.1167 17.6561 40.1167C17.7663 40.1167 17.8214 40.1718 17.8214 40.2822C17.8214 40.3926 17.7663 40.5397 17.6561 40.7237C16.0397 43.5931 14.0744 45.8739 11.7601 47.5661C11.5764 47.7868 11.3376 47.8972 11.0437 47.8972C10.7866 47.8972 10.658 47.7317 10.658 47.4006C10.658 47.0695 10.8784 45.8187 11.3192 43.6483C11.7601 41.4778 12.0723 39.8224 12.256 38.682C12.4764 37.5415 12.6233 36.1068 12.6968 34.3778C11.1907 35.1136 9.33553 36.6954 7.1314 39.1234C4.92727 41.5514 3.45786 43.4459 2.72315 44.8071C2.02517 46.1682 1.56598 47.2902 1.34557 48.1731C1.16189 49.0192 0.904745 49.4423 0.574126 49.4423C0.280242 49.4423 0.133301 49.2032 0.133301 48.7249V48.6146ZM4.04562 31.3429C3.86195 31.49 3.51296 31.674 2.99866 31.8947L3.5497 33.1638L4.04562 31.3429ZM30.4999 37.468L30.6652 36.4195C30.6652 35.8309 30.4632 35.3527 30.0591 34.9848C29.6917 34.5802 29.2509 34.3778 28.7366 34.3778C28.2958 38.8659 27.2121 42.3055 25.4855 44.6967H27.1937C26.7161 44.991 26.3488 45.1381 26.0916 45.1381C25.8712 45.1381 25.7059 45.1198 25.5957 45.083C25.5222 45.0462 25.4304 45.0278 25.3202 45.0278C25.3569 45.0646 25.2467 45.1933 24.9896 45.4141C24.7692 45.598 24.0896 46.1866 22.9508 47.1798C21.812 48.1731 20.7466 48.6697 19.7548 48.6697C18.3221 48.6697 17.6058 47.7501 17.6058 45.9107C17.6058 43.6666 18.4507 41.3674 20.1405 39.013C19.5527 37.5783 19.2589 36.07 19.2589 34.4882C19.2589 32.8695 19.5711 31.4716 20.1956 30.2944C21.4079 27.9768 22.914 26.818 24.7141 26.818C26.9917 26.818 28.3141 28.7677 28.6815 32.6672C30.5183 32.7408 31.4366 33.6973 31.4366 35.5366C31.4366 37.0449 31.1979 37.7991 30.7203 37.7991C30.5734 37.7991 30.4999 37.6887 30.4999 37.468ZM24.7692 28.032C23.5936 28.032 22.5099 29.1908 21.5181 31.5084C20.8936 32.9063 20.5813 34.2491 20.5813 35.5366C20.5813 36.8242 20.6364 37.7807 20.7466 38.4061C22.9875 35.3895 25.3386 33.5133 27.7998 32.7776C27.0651 29.6139 26.0549 28.032 24.7692 28.032ZM27.8549 34.3226C27.0468 34.433 25.7794 35.1871 24.0528 36.5851C22.363 37.9462 21.316 39.0314 20.912 39.8408C21.6834 42.6366 22.6201 44.1633 23.7222 44.4208C24.6039 43.6115 25.5039 42.0112 26.4223 39.62C27.3774 37.2289 27.8549 35.4631 27.8549 34.3226ZM20.5262 40.3374C19.314 42.3975 18.7078 44.0345 18.7078 45.2485C18.7078 46.4257 19.1119 47.0143 19.9201 47.0143C20.9119 47.0143 22.1059 46.2418 23.5018 44.6967C22.2895 44.5495 21.2977 43.0964 20.5262 40.3374ZM51.622 30.5152C51.622 31.1405 48.5179 32.3361 42.3096 34.1019C40.6565 37.3024 39.6463 39.3441 39.2789 40.227C38.3238 42.5078 37.8462 44.6967 37.8462 46.7936C37.8462 48.0076 38.2503 48.6146 39.0585 48.6146C40.0504 48.6146 41.3545 47.9156 42.9708 46.5177L45.4505 44.3656C45.5607 44.3656 45.6158 44.4208 45.6158 44.5312C45.6158 44.6415 45.5607 44.8071 45.4505 45.0278C44.8627 45.9107 43.8708 46.9039 42.4749 48.0076C41.079 49.0744 39.9769 49.6078 39.1687 49.6078C37.3319 49.6078 36.4136 48.4858 36.4136 46.2418C36.4136 44.6231 36.8176 42.6182 37.6258 40.227C37.2585 39.197 36.5238 38.4428 35.4217 37.9646C35.0911 37.8175 34.5951 37.6151 33.9339 37.3576C33.2727 37.1001 32.74 36.8794 32.3359 36.6954C31.9318 36.5115 31.7298 36.1436 31.7298 35.5918C31.7298 35.0032 31.9869 34.6537 32.5012 34.5434H33.989C35.8993 34.5434 37.9381 34.3226 40.1055 33.8812L45.3954 22.0173C45.6525 21.3551 46.2586 21.024 47.2138 21.024C48.2056 21.024 48.7016 21.2079 48.7016 21.5758C48.7016 21.6862 48.0036 23.268 46.6076 26.3214C45.2484 29.338 44.4953 30.9198 44.3484 31.067L43.4116 31.9499L42.7504 33.2742C43.6321 33.0167 46.3138 32.097 50.7955 30.5152C51.1628 30.4416 51.3832 30.4048 51.4567 30.4048C51.5669 30.4048 51.622 30.4416 51.622 30.5152ZM39.7197 34.8193C37.6626 35.2975 35.8074 35.6654 34.1543 35.9229C36.0646 36.9162 37.2952 38.0934 37.8462 39.4545C38.2136 38.4244 38.8381 36.8794 39.7197 34.8193ZM63.181 40.7788C63.2178 40.7788 63.2362 40.834 63.2362 40.9444C63.2362 41.0547 63.0892 41.3674 62.7953 41.8825C61.6565 43.7218 60.0034 45.4324 57.836 47.0143C55.6684 48.5594 53.6296 49.3319 51.7193 49.3319C49.1111 49.3319 47.807 47.6397 47.807 44.2552C47.807 43.1148 47.9356 41.9009 48.1927 40.6133C47.8621 40.319 47.5682 39.9143 47.3111 39.3993C47.3478 39.4361 47.4396 39.4913 47.5866 39.5649C47.7335 39.6016 47.8621 39.6568 47.9723 39.7304C48.1192 39.7672 48.2662 39.804 48.4131 39.8408C48.7805 38.0382 49.9009 36.1804 51.7744 34.2675C53.6479 32.3545 55.4663 31.398 57.2296 31.398C57.634 31.398 57.836 31.4532 57.836 31.5636C57.836 31.6372 57.5789 31.8211 57.0643 32.1154C55.7051 32.8512 54.4377 33.9916 53.2622 35.5366C52.0132 37.0817 51.1132 38.6268 50.5621 40.1718L50.6724 40.2822C52.4357 40.2822 54.2724 39.4361 56.1827 37.7439C58.0932 36.0517 59.0483 34.3226 59.0483 32.5569C59.0483 32.0418 58.9014 31.5636 58.6075 31.1221C58.3503 30.6439 57.9095 30.4048 57.2847 30.4048C56.6602 30.4048 55.8704 30.6991 54.9153 31.2877C53.9969 31.8395 53.4826 32.1154 53.3724 32.1154C53.2989 32.1154 53.2622 32.097 53.2622 32.0602C53.2622 31.6188 53.85 31.1589 55.0255 30.6807C56.2378 30.2025 57.2113 29.9633 57.9463 29.9633C58.7177 29.9633 59.3789 30.2025 59.93 30.6807C60.481 31.1589 60.7565 31.8211 60.7565 32.6672C60.7565 34.6169 59.5442 36.4563 57.1194 38.1853C54.7316 39.9143 52.4724 40.8708 50.3417 41.0547C50.0478 41.9376 49.9009 42.7837 49.9009 43.5931C49.9009 46.6464 51.003 48.1731 53.2071 48.1731C54.8969 48.1731 56.5868 47.5109 58.2769 46.1866C59.9667 44.8255 61.3259 43.2804 62.3545 41.5514C62.6851 41.0364 62.9606 40.7788 63.181 40.7788ZM65.8214 49.1112C65.5275 49.1112 65.252 48.9089 64.9949 48.5042C64.7744 48.0995 64.6642 47.6581 64.6642 47.1798C64.6642 46.6648 64.9949 46.2786 65.6561 46.021C65.8765 45.7635 66.3908 45.4141 67.199 44.9726C68.0072 44.5312 68.5031 44.3104 68.6868 44.3104C68.8705 44.3104 68.999 44.3472 69.0725 44.4208L68.2459 45.4141C67.9153 45.9291 67.6582 46.5545 67.4745 47.2902C67.1439 48.5042 66.5928 49.1112 65.8214 49.1112ZM81.2692 40.7237C81.3427 40.7237 81.3794 40.7604 81.3794 40.834C81.3794 41.4594 80.3692 42.8389 78.3488 44.9726C76.7324 46.5912 75.5018 47.4006 74.6569 47.4006C72.7833 47.4006 71.8466 46.4625 71.8466 44.5863C71.8466 43.1884 72.214 41.4226 72.9487 39.2889L71.9568 40.834C71.4792 41.6433 71.1486 42.048 70.965 42.048C70.8915 42.048 70.8547 41.956 70.8547 41.7721C70.8547 41.5514 71.1302 41.0731 71.6813 40.3374C72.2323 39.6016 73.0405 38.0934 74.1058 35.8125C74.3997 35.04 74.8038 34.1755 75.3181 33.219C75.5018 32.8879 75.9242 32.7224 76.5855 32.7224C77.2834 32.7224 77.6324 32.9063 77.6324 33.2742C77.6324 33.6421 77.4487 34.1939 77.0814 34.9296C76.714 35.6654 76.4018 36.0884 76.1446 36.1988C74.2344 40.0247 73.2793 42.8389 73.2793 44.6415C73.2793 45.8555 73.6834 46.4625 74.4915 46.4625C75.814 46.4625 77.2651 45.506 78.8447 43.5931C79.5059 42.8205 79.91 42.3607 80.057 42.2135C80.2039 42.0296 80.3509 41.8457 80.4978 41.6617C80.6447 41.4778 80.7733 41.3306 80.8835 41.2203C81.0672 41.0364 81.1958 40.8708 81.2692 40.7237ZM79.561 25.7144C80.3692 25.3465 80.8651 25.1626 81.0488 25.1626C81.2325 25.1626 81.3243 25.2178 81.3243 25.3281C81.3243 25.4017 80.9019 25.9167 80.057 26.8732L79.2304 28.5838C78.8998 29.3196 78.4773 29.6874 77.9631 29.6874C77.2283 29.6874 76.861 29.3012 76.861 28.5286C76.861 28.1608 77.0998 27.7009 77.5773 27.1491C78.0916 26.5605 78.7529 26.0823 79.561 25.7144ZM100.16 30.5152C100.16 31.1405 97.0563 32.3361 90.848 34.1019C89.1949 37.3024 88.1847 39.3441 87.8173 40.227C86.8622 42.5078 86.3846 44.6967 86.3846 46.7936C86.3846 48.0076 86.7887 48.6146 87.5963 48.6146C88.5888 48.6146 89.8929 47.9156 91.5092 46.5177L107.434 30.7911C107.544 30.7911 107.599 30.8462 107.599 30.9566C107.599 31.067 107.544 31.2325 107.434 31.4532C106.846 32.3361 92.4093 46.9039 91.0133 48.0076C89.6174 49.0744 88.5153 49.6078 87.7071 49.6078C85.8703 49.6078 84.952 48.4858 84.952 46.2418C84.952 44.6231 85.356 42.6182 86.1642 40.227C85.7969 39.197 85.0622 38.4428 83.9595 37.9646C83.6295 37.8175 83.1336 37.6151 82.4723 37.3576C81.8111 37.1001 81.2784 36.8794 80.8743 36.6954C80.4702 36.5115 80.2676 36.1436 80.2676 35.5918C80.2676 35.0032 80.5253 34.6537 81.0396 34.5434H82.5274C84.4377 34.5434 86.4765 34.3226 88.6439 33.8812L93.9338 22.0173C94.1909 21.3551 94.7971 21.024 95.7522 21.024C96.744 21.024 97.24 21.2079 97.24 21.5758C97.24 21.6862 96.542 23.268 95.146 26.3214C93.7868 29.338 93.0338 30.9198 92.8868 31.067L91.9501 31.9499L91.2888 33.2742C92.1705 33.0167 94.8522 32.097 99.3339 30.5152C99.7012 30.4416 99.9217 30.4048 99.9951 30.4048C100.105 30.4048 100.16 30.4416 100.16 30.5152ZM88.2581 34.8193C86.201 35.2975 84.3458 35.6654 82.6927 35.9229C84.603 36.9162 85.8336 38.0934 86.3846 39.4545C86.752 38.4244 87.3765 36.8794 88.2581 34.8193Z" fill="white"/>
<path d="M118.547 16.5411L117.715 15.99L117.267 15.6935L116.371 15.1L113.811 13.4045C111.812 17.9627 106.762 18.7839 106.762 18.7839C109.325 25.9079 106.974 31.2783 106.974 31.2783L112.924 22.2695C112.657 21.9521 112.613 21.4862 112.853 21.1227C113.146 20.6802 113.741 20.558 114.183 20.8512C114.624 21.1436 114.746 21.7398 114.454 22.1826C114.213 22.5467 113.768 22.6886 113.372 22.5665L107.422 31.575C107.422 31.575 111.437 27.3067 118.987 26.8805C118.987 26.8805 117.765 21.9051 121.171 18.2792L118.547 16.5411Z" fill="white"/>
<path d="M115.689 5.17322L113.436 12.0924L122.524 18.112L128 13.327L115.689 5.17322Z" fill="white"/>
</g>
<defs>
<clipPath id="clip0">
<rect width="128" height="73" fill="white"/>
</clipPath>
</defs>
</svg>
