<svg width="199" height="111" viewBox="0 0 199 111" fill="none" xmlns="http://www.w3.org/2000/svg">
<g clip-path="url(#clip0)">
<path d="M0.206787 73.9209L5.0042 52.6928C4.77575 51.9097 4.14752 50.3994 3.1195 48.1619C3.1195 47.7703 3.60496 47.4067 4.57586 47.0711C7.43147 46.0083 9.25905 45.4769 10.0586 45.4769C10.9153 45.4769 11.3436 45.7286 11.3436 46.2321C9.2305 51.3783 7.77414 54.9582 6.97457 56.972C6.97457 57.1398 6.97457 57.3076 6.97457 57.4754C6.97457 59.2094 6.71757 60.0765 6.20356 60.0765C6.08933 60.0765 6.00366 59.9926 5.94655 59.8247C4.7472 63.3488 3.91907 65.9219 3.46218 67.5441C6.08933 63.3488 8.7736 59.6849 11.515 56.5524C15.7984 51.6859 19.3393 49.2527 22.1378 49.2527C23.4514 49.2527 24.1082 49.7561 24.1082 50.763C24.1082 51.1545 22.4519 57.3076 19.1394 69.2222C22.4519 66.8169 25.022 64.2438 26.8496 61.5029C27.1351 61.1672 27.335 60.9994 27.4493 60.9994C27.6206 60.9994 27.7063 61.0833 27.7063 61.2511C27.7063 61.419 27.6206 61.6427 27.4493 61.9224C24.9363 66.2855 21.8808 69.7536 18.2828 72.3267C17.9972 72.6623 17.626 72.8301 17.1691 72.8301C16.7693 72.8301 16.5694 72.5784 16.5694 72.075C16.5694 71.5715 16.9121 69.6697 17.5974 66.3694C18.2828 63.0691 18.7682 60.5519 19.0538 58.8179C19.3965 57.0838 19.6249 54.9023 19.7391 52.2733C17.3975 53.392 14.5134 55.7973 11.0866 59.4891C7.65992 63.181 5.37543 66.0617 4.23319 68.1314C3.14806 70.2011 2.43416 71.9071 2.09149 73.2496C1.80593 74.5362 1.40614 75.1795 0.892132 75.1795C0.435235 75.1795 0.206787 74.8159 0.206787 74.0887V73.9209ZM6.28923 47.6585C6.00367 47.8822 5.4611 48.1619 4.66153 48.4975L5.51821 50.4273L6.28923 47.6585ZM47.4173 56.972L47.6744 55.3778C47.6744 54.4828 47.3602 53.7556 46.732 53.1962C46.1609 52.5809 45.4755 52.2733 44.676 52.2733C43.9906 59.0976 42.3058 64.3277 39.6215 67.9636H42.2773C41.5348 68.4111 40.9637 68.6348 40.5639 68.6348C40.2212 68.6348 39.9642 68.6069 39.7929 68.5509C39.6787 68.495 39.5359 68.467 39.3645 68.467C39.4217 68.523 39.2503 68.7187 38.8505 69.0544C38.5079 69.334 37.4513 70.229 35.6808 71.7393C33.9103 73.2496 32.2541 74.0048 30.7121 74.0048C28.4847 74.0048 27.371 72.6064 27.371 69.8095C27.371 66.3974 28.6846 62.9013 31.3117 59.3213C30.3979 57.1398 29.941 54.8464 29.941 52.4411C29.941 49.9798 30.4265 47.8542 31.3974 46.0642C33.2821 42.5402 35.6237 40.7782 38.4222 40.7782C41.9631 40.7782 44.0192 43.7429 44.5903 49.6722C47.4459 49.7841 48.8737 51.2384 48.8737 54.0353C48.8737 56.3287 48.5025 57.4754 47.76 57.4754C47.5316 57.4754 47.4173 57.3076 47.4173 56.972ZM38.5079 42.6241C36.6803 42.6241 34.9955 44.3861 33.4534 47.9102C32.4825 50.0358 31.9971 52.0775 31.9971 54.0353C31.9971 55.9931 32.0827 57.4474 32.2541 58.3984C35.7379 53.8115 39.3931 50.9587 43.2196 49.84C42.0774 45.0294 40.5068 42.6241 38.5079 42.6241ZM43.3053 52.1893C42.0488 52.3572 40.0784 53.5039 37.3942 55.6295C34.767 57.6991 33.1393 59.3493 32.5111 60.5799C33.7104 64.8311 35.1668 67.1525 36.8801 67.5441C38.2509 66.3134 39.6501 63.8802 41.0779 60.2443C42.5628 56.6084 43.3053 53.9234 43.3053 52.1893ZM31.9114 61.3351C30.0267 64.4675 29.0844 66.9567 29.0844 68.8026C29.0844 70.5926 29.7126 71.4876 30.9691 71.4876C32.5111 71.4876 34.3672 70.3129 36.5375 67.9636C34.6528 67.7398 33.1108 65.5303 31.9114 61.3351ZM80.2556 46.3999C80.2556 47.3508 75.4297 49.1687 65.7777 51.8537C63.2077 56.7202 61.6371 59.8248 61.066 61.1672C59.5811 64.6353 58.8386 67.9636 58.8386 71.152C58.8386 72.9979 59.4668 73.9209 60.7233 73.9209C62.2653 73.9209 64.2928 72.8581 66.8057 70.7325L70.6608 67.4602C70.8321 67.4602 70.9178 67.5441 70.9178 67.7119C70.9178 67.8797 70.8321 68.1314 70.6608 68.467C69.747 69.8095 68.205 71.3198 66.0347 72.9979C63.8645 74.6201 62.1511 75.4312 60.8946 75.4312C58.039 75.4312 56.6112 73.7251 56.6112 70.3129C56.6112 67.8517 57.2395 64.8031 58.4959 61.1672C57.9248 59.601 56.7826 58.4543 55.0692 57.7271C54.5552 57.5034 53.7842 57.1957 52.7562 56.8042C51.7281 56.4126 50.9 56.077 50.2718 55.7973C49.6436 55.5176 49.3294 54.9582 49.3294 54.1192C49.3294 53.2242 49.7292 52.6928 50.5288 52.525H52.8418C55.8117 52.525 58.9814 52.1893 62.351 51.5181L70.5751 33.4784C70.9749 32.4716 71.9173 31.9681 73.4022 31.9681C74.9442 31.9681 75.7152 32.2478 75.7152 32.8072C75.7152 32.975 74.6301 35.3803 72.4598 40.0231C70.3467 44.6099 69.1759 47.0152 68.9474 47.2389L67.4911 48.5814L66.4631 50.5951C67.8338 50.2036 72.0029 48.8052 78.9706 46.3999C79.5417 46.288 79.8844 46.2321 79.9986 46.2321C80.17 46.2321 80.2556 46.288 80.2556 46.3999ZM61.7513 52.9445C58.553 53.6717 55.6689 54.231 53.0988 54.6226C56.0687 56.1329 57.9819 57.9229 58.8386 59.9926C59.4097 58.4263 60.3806 56.077 61.7513 52.9445ZM98.2263 62.0063C98.2834 62.0063 98.312 62.0902 98.312 62.258C98.312 62.4258 98.0835 62.9013 97.6266 63.6844C95.8562 66.4813 93.2861 69.0823 89.9165 71.4876C86.5465 73.837 83.3767 75.0117 80.4069 75.0117C76.3519 75.0117 74.3245 72.4385 74.3245 67.2923C74.3245 65.5583 74.5244 63.7124 74.9241 61.7546C74.4101 61.3071 73.9532 60.6918 73.5535 59.9087C73.6106 59.9646 73.7533 60.0485 73.9818 60.1604C74.2102 60.2163 74.4101 60.3002 74.5815 60.4121C74.8099 60.468 75.0384 60.524 75.2668 60.5799C75.8379 57.839 77.5798 55.0142 80.4926 52.1054C83.4053 49.1967 86.2323 47.7424 88.9737 47.7424C89.6024 47.7424 89.9165 47.8263 89.9165 47.9941C89.9165 48.1059 89.5167 48.3856 88.7167 48.8331C86.6036 49.9519 84.6332 51.6859 82.8056 54.0353C80.8638 56.3846 79.4646 58.734 78.6079 61.0833L78.7792 61.2511C81.5206 61.2511 84.3762 59.9646 87.346 57.3915C90.3163 54.8184 91.8012 52.1893 91.8012 49.5044C91.8012 48.7213 91.5728 47.9941 91.1159 47.3228C90.7161 46.5956 90.0307 46.2321 89.0594 46.2321C88.0885 46.2321 86.8606 46.6796 85.3757 47.5745C83.9479 48.4136 83.1483 48.8331 82.9769 48.8331C82.8627 48.8331 82.8056 48.8052 82.8056 48.7492C82.8056 48.078 83.7194 47.3788 85.547 46.6516C87.4317 45.9244 88.9452 45.5608 90.0879 45.5608C91.2872 45.5608 92.3152 45.9244 93.1719 46.6516C94.0286 47.3788 94.4569 48.3856 94.4569 49.6722C94.4569 52.6368 92.5722 55.4337 88.8024 58.0627C85.0901 60.6918 81.5777 62.1461 78.2652 62.4258C77.8083 63.7683 77.5798 65.0549 77.5798 66.2855C77.5798 70.9282 79.2932 73.2496 82.7199 73.2496C85.3471 73.2496 87.9743 72.2428 90.6019 70.229C93.229 68.1594 95.3422 65.81 96.9413 63.181C97.4553 62.3979 97.8836 62.0063 98.2263 62.0063ZM102.331 74.676C101.874 74.676 101.446 74.3684 101.046 73.7531C100.704 73.1378 100.532 72.4665 100.532 71.7393C100.532 70.9562 101.046 70.3689 102.074 69.9773C102.417 69.5858 103.216 69.0544 104.473 68.3831C105.729 67.7119 106.5 67.3762 106.786 67.3762C107.072 67.3762 107.271 67.4322 107.386 67.5441L106.101 69.0544C105.587 69.8375 105.187 70.7884 104.901 71.9072C104.387 73.7531 103.531 74.676 102.331 74.676ZM126.348 61.9224C126.462 61.9224 126.519 61.9783 126.519 62.0902C126.519 63.0411 124.949 65.1388 121.807 68.3831C119.294 70.8443 117.381 72.075 116.068 72.075C113.155 72.075 111.699 70.6486 111.699 67.7958C111.699 65.6702 112.27 62.9852 113.412 59.7408L111.87 62.0902C111.127 63.3208 110.613 63.9361 110.328 63.9361C110.214 63.9361 110.157 63.7963 110.157 63.5166C110.157 63.181 110.585 62.4538 111.442 61.3351C112.298 60.2163 113.555 57.9229 115.211 54.4548C115.668 53.2801 116.296 51.9656 117.096 50.5112C117.381 50.0078 118.038 49.7561 119.066 49.7561C120.151 49.7561 120.694 50.0358 120.694 50.5951C120.694 51.1545 120.408 51.9936 119.837 53.1123C119.266 54.231 118.78 54.8743 118.381 55.0421C115.411 60.8596 113.926 65.1388 113.926 67.8797C113.926 69.7256 114.554 70.6486 115.811 70.6486C117.867 70.6486 120.123 69.1942 122.578 66.2855C123.606 65.1108 124.235 64.4116 124.463 64.1878C124.692 63.9082 124.92 63.6285 125.148 63.3488C125.377 63.0691 125.577 62.8454 125.748 62.6775C126.034 62.3979 126.234 62.1461 126.348 61.9224ZM123.692 39.1001C124.949 38.5407 125.72 38.261 126.005 38.261C126.291 38.261 126.433 38.345 126.433 38.5128C126.433 38.6246 125.777 39.4077 124.463 40.8621L123.178 43.4632C122.664 44.5819 122.007 45.1413 121.208 45.1413C120.065 45.1413 119.494 44.554 119.494 43.3793C119.494 42.8199 119.866 42.1207 120.608 41.2816C121.408 40.3866 122.436 39.6595 123.692 39.1001ZM155.718 46.3999C155.718 47.3508 150.892 49.1687 141.24 51.8537C138.67 56.7202 137.099 59.8248 136.528 61.1672C135.043 64.6353 134.301 67.9636 134.301 71.152C134.301 72.9979 134.929 73.9209 136.184 73.9209C137.727 73.9209 139.755 72.8581 142.268 70.7325L167.026 46.8194C167.197 46.8194 167.283 46.9033 167.283 47.0711C167.283 47.2389 167.197 47.4906 167.026 47.8263C166.112 49.1688 143.667 71.3198 141.497 72.9979C139.327 74.6201 137.613 75.4312 136.357 75.4312C133.501 75.4312 132.073 73.7251 132.073 70.3129C132.073 67.8517 132.702 64.8031 133.958 61.1672C133.387 59.601 132.245 58.4543 130.53 57.7271C130.017 57.5034 129.246 57.1957 128.218 56.8042C127.19 56.4126 126.362 56.077 125.734 55.7973C125.106 55.5176 124.791 54.9582 124.791 54.1192C124.791 53.2242 125.191 52.6928 125.991 52.525H128.304C131.274 52.525 134.443 52.1893 137.813 51.5181L146.037 33.4784C146.437 32.4716 147.379 31.9681 148.864 31.9681C150.406 31.9681 151.177 32.2478 151.177 32.8072C151.177 32.975 150.092 35.3803 147.922 40.0231C145.809 44.6099 144.638 47.0152 144.41 47.2389L142.953 48.5814L141.925 50.5951C143.296 50.2036 147.465 48.8052 154.433 46.3999C155.004 46.288 155.346 46.2321 155.461 46.2321C155.632 46.2321 155.718 46.288 155.718 46.3999ZM137.213 52.9445C134.015 53.6717 131.131 54.231 128.561 54.6226C131.531 56.1329 133.444 57.9229 134.301 59.9926C134.872 58.4263 135.843 56.077 137.213 52.9445Z" fill="#185C9E"/>
<path d="M184.304 25.1517L183.01 24.3136L182.314 23.8628L180.92 22.9604L176.94 20.3823C173.833 27.3132 165.982 28.5619 165.982 28.5619C169.966 39.3944 166.311 47.5602 166.311 47.5602L175.562 33.8619C175.146 33.3793 175.078 32.6709 175.452 32.1181C175.906 31.4453 176.831 31.2595 177.519 31.7054C178.205 32.1499 178.395 33.0565 177.94 33.7298C177.566 34.2834 176.874 34.4992 176.258 34.3135L167.008 48.0114C167.008 48.0114 173.25 41.5213 184.988 40.8731C184.988 40.8731 183.088 33.3078 188.383 27.7945L184.304 25.1517Z" fill="#185C9E"/>
<path d="M179.86 7.86633L176.357 18.3873L190.487 27.5403L199 20.2645L179.86 7.86633Z" fill="#185C9E"/>
</g>
<defs>
<clipPath id="clip0">
<rect width="199" height="111" fill="white"/>
</clipPath>
</defs>
</svg>
