<svg width="54" height="87" viewBox="0 0 54 87" fill="none" xmlns="http://www.w3.org/2000/svg">
<path d="M52.9988 33.4111H45.9634V32.2488H33.8644C33.3113 32.2488 32.8632 31.7969 32.8632 31.2401C32.8632 30.6832 33.3113 30.2314 33.8644 30.2314H45.9634V25.2975H33.8644C33.3113 25.2975 32.8632 24.8457 32.8632 24.2888C32.8632 23.7318 33.3113 23.2801 33.8644 23.2801H45.9634V19.0473C45.9634 18.8105 45.9367 18.5803 45.9282 18.3456H33.8644C33.3113 18.3456 32.8632 17.8937 32.8632 17.3369C32.8632 16.7799 33.3113 16.3282 33.8644 16.3282H45.7486C44.8373 9.93202 40.7795 4.56152 35.2007 1.85186V8.73717C35.2007 9.29411 34.7526 9.74588 34.1995 9.74588C33.6464 9.74588 33.1983 9.29411 33.1983 8.73717V1.01624C31.5566 0.442084 29.8151 0.0956256 28.005 0V8.73717C28.005 9.29411 27.5569 9.74588 27.0038 9.74588C26.4506 9.74588 26.0026 9.29411 26.0026 8.73717V0.000269034C24.1874 0.0965671 22.4415 0.444505 20.7963 1.02068V8.73717C20.7963 9.29411 20.3481 9.74588 19.795 9.74588C19.2418 9.74588 18.7938 9.29411 18.7938 8.73717V1.85697C13.2158 4.56838 9.1624 9.93605 8.25141 16.3282H20.1378C20.6909 16.3282 21.1391 16.7799 21.1391 17.3369C21.1391 17.8937 20.6909 18.3456 20.1378 18.3456H8.07185C8.06331 18.5803 8.03661 18.8105 8.03661 19.0473V23.2801H20.1378C20.6909 23.2801 21.1391 23.7318 21.1391 24.2888C21.1391 24.8457 20.6909 25.2975 20.1378 25.2975H8.03661V30.2314H20.1378C20.6909 30.2314 21.1391 30.6832 21.1391 31.2401C21.1391 31.7969 20.6909 32.2488 20.1378 32.2488H8.03661V33.4111H1.00124C0.454028 33.4111 0 33.8686 0 34.4198V44.1036C0 58.0082 10.2668 69.3576 23.5757 71.0562V77.9693H15.9663C11.7479 77.9693 8.31695 81.4258 8.31695 85.6759C8.31695 86.2271 8.7575 86.6846 9.31819 86.6846H44.6953C45.2425 86.6846 45.6965 86.2271 45.6965 85.6759C45.6965 81.4258 42.2524 77.9693 38.0471 77.9693H30.5312V71.0562C43.9747 69.2944 54 57.8893 54 44.1036V34.4198C54 33.8686 53.5464 33.4111 52.9988 33.4111ZM51.9975 44.1036C51.9975 58.2554 40.6854 69.2944 27.0601 69.2944C13.4127 69.2944 2.00248 58.2519 2.00248 44.1036V35.4286H8.03661V37.1826H20.1378C20.6909 37.1826 21.1391 37.6345 21.1391 38.1913C21.1391 38.7483 20.6909 39.2001 20.1378 39.2001H8.03661V43.162C8.03661 43.4904 8.06918 43.8104 8.08547 44.1347H20.1378C20.6909 44.1347 21.1391 44.5864 21.1391 45.1434C21.1391 45.7002 20.6909 46.1521 20.1378 46.1521H8.29239C9.27841 52.4249 13.2951 57.6795 18.7938 60.3524V53.7252C18.7938 53.1684 19.2418 52.7165 19.795 52.7165C20.3481 52.7165 20.7963 53.1684 20.7963 53.7252V61.1887C22.4415 61.7647 24.1874 62.1129 26.0026 62.2092V53.7252C26.0026 53.1684 26.4506 52.7165 27.0038 52.7165C27.5569 52.7165 28.005 53.1684 28.005 53.7252V62.2095C29.8151 62.1138 31.5566 61.7673 33.1983 61.1931V53.7252C33.1983 53.1684 33.6464 52.7165 34.1995 52.7165C34.7526 52.7165 35.2007 53.1684 35.2007 53.7252V60.3575C40.7008 57.6862 44.7209 52.4289 45.7072 46.1521H33.8644C33.3113 46.1521 32.8632 45.7002 32.8632 45.1434C32.8632 44.5864 33.3113 44.1347 33.8644 44.1347H45.9145C45.9308 43.8104 45.9634 43.4904 45.9634 43.162V39.2001H33.8644C33.3113 39.2001 32.8632 38.7483 32.8632 38.1913C32.8632 37.6345 33.3113 37.1826 33.8644 37.1826H45.9634V35.4286H51.9975V44.1036Z" fill="#185C9E"/>
</svg>
