<svg width="86" height="88" viewBox="0 0 86 88" fill="none" xmlns="http://www.w3.org/2000/svg">
<path d="M85.1226 28.4713L79.8737 16.8783C79.5902 16.2463 78.5509 16.2463 78.2676 16.8783L73.0061 28.4713H85.1226Z" fill="#185C9E"/>
<path d="M85.4349 30.2197H79.9413V46.0357C79.9413 46.5199 79.5501 46.9099 79.0639 46.9099C78.5779 46.9099 78.1864 46.5199 78.1864 46.0357V30.2197H72.7065V65.0861H85.4349V30.2197Z" fill="#185C9E"/>
<path d="M72.7065 66.834V74.0901C72.7065 77.587 75.5545 80.4244 79.0639 80.4244C82.5732 80.4244 85.4349 77.587 85.4349 74.0901V66.834H72.7065Z" fill="#185C9E"/>
<path d="M61.0717 8.74365H17.6855V78.3885H61.0717V8.74365ZM55.0414 71.7009H23.7159V70.356H55.0414V71.7009ZM55.0414 62.5466H23.7159V61.2018H55.0414V62.5466ZM55.0414 53.3925H23.7159V52.0476H55.0414V53.3925ZM55.0414 44.2389H23.7159V42.894H55.0414V44.2389ZM55.0414 35.0847H23.7159V33.7398H55.0414V35.0847ZM55.0414 25.9304H23.7159V24.5856H55.0414V25.9304ZM55.0414 16.777H23.7159V15.4321H55.0414V16.777Z" fill="#185C9E"/>
<path d="M64.5401 0H8.17284C5.24366 0 2.8683 2.36702 2.8683 5.28558V21.6173H1.01234C0.453124 21.6173 0 22.0692 0 22.626C0 23.1829 0.453124 23.6347 1.01234 23.6347H2.8683V35.5779H1.01234C0.453124 35.5779 0 36.0297 0 36.5866C0 37.1434 0.453124 37.5952 1.01234 37.5952H2.8683V49.5378H1.01234C0.453124 49.5378 0 49.9895 0 50.5465C0 51.1033 0.453124 51.5551 1.01234 51.5551H2.8683V63.4976H1.01234C0.453124 63.4976 0 63.9494 0 64.5062C0 65.0632 0.453124 65.5149 1.01234 65.5149H2.8683V81.8504C2.8683 84.7554 5.24366 87.1357 8.17284 87.1357H64.5401C67.4691 87.1357 69.8447 84.7554 69.8447 81.8504V5.28558C69.8447 2.36702 67.4691 0 64.5401 0ZM10.8358 67.4741C9.54801 67.4741 8.46156 66.6554 8.04596 65.5149H9.20691C9.76613 65.5149 10.2193 65.0632 10.2193 64.5062C10.2193 63.9494 9.76613 63.4976 9.20691 63.4976H8.04596C8.46156 62.3572 9.54801 61.5384 10.8358 61.5384C12.481 61.5384 13.8146 62.8672 13.8146 64.5062C13.8146 66.1454 12.481 67.4741 10.8358 67.4741ZM10.8358 53.514C9.54801 53.514 8.46156 52.6951 8.04596 51.5551H9.20691C9.76613 51.5551 10.2193 51.1033 10.2193 50.5465C10.2193 49.9895 9.76613 49.5378 9.20691 49.5378H8.04596C8.46129 48.3976 9.54801 47.5785 10.8358 47.5785C12.481 47.5785 13.8146 48.9072 13.8146 50.5462C13.8146 52.1854 12.481 53.514 10.8358 53.514ZM10.8358 39.5541C9.54801 39.5541 8.46183 38.7352 8.04596 37.5952H9.20691C9.76613 37.5952 10.2193 37.1434 10.2193 36.5866C10.2193 36.0297 9.76613 35.5779 9.20691 35.5779H8.04596C8.46129 34.4376 9.54801 33.6184 10.8358 33.6184C12.481 33.6184 13.8146 34.9471 13.8146 36.5862C13.8146 38.2253 12.481 39.5541 10.8358 39.5541ZM10.8358 25.5941C9.54801 25.5941 8.46129 24.775 8.04596 23.6347H9.20691C9.76613 23.6347 10.2193 23.1829 10.2193 22.626C10.2193 22.0692 9.76613 21.6173 9.20691 21.6173H8.04596C8.46183 20.4774 9.54801 19.6585 10.8358 19.6585C12.481 19.6585 13.8146 20.9873 13.8146 22.6264C13.8146 24.2654 12.481 25.5941 10.8358 25.5941ZM62.4216 79.7336H16.3358V7.39868H62.4216V79.7336Z" fill="#185C9E"/>
</svg>
