<svg width="138" height="100" viewBox="0 0 138 100" fill="none" xmlns="http://www.w3.org/2000/svg">
<path d="M35.0068 20.8597C34.5128 20.8656 34.0228 20.7711 33.5667 20.5819C33.1106 20.3927 32.698 20.1129 32.354 19.7594C31.9841 19.4297 31.6999 19.0154 31.526 18.5521C31.3348 18.0976 31.2408 17.6084 31.25 17.1156C31.2467 16.6237 31.3427 16.1361 31.5324 15.6819C31.7221 15.2278 32.0015 14.8162 32.354 14.4719C32.8812 13.9512 33.5498 13.5955 34.2773 13.4489C35.0048 13.3023 35.7594 13.371 36.4482 13.6467C37.3595 14.051 38.0905 14.7741 38.503 15.6792C38.681 16.137 38.7695 16.6246 38.7637 17.1156C38.7733 17.6085 38.6801 18.0979 38.4901 18.553C38.3 19.0081 38.0172 19.4189 37.6596 19.7594C37.3198 20.1216 36.907 20.408 36.4482 20.5999C35.9891 20.7784 35.4996 20.8666 35.0068 20.8597ZM49.7735 10.9571C50.3001 10.9596 50.8218 10.8556 51.3069 10.6514C52.2237 10.2637 52.9495 9.5303 53.3258 8.61131C53.7021 7.69233 53.6985 6.66231 53.3157 5.74599C52.9266 4.8323 52.1907 4.10904 51.2686 3.734C50.3465 3.35896 49.3129 3.36258 48.3935 3.74407C47.5993 4.08413 46.9464 4.6857 46.544 5.4481C46.1417 6.2105 46.0143 7.08748 46.1831 7.93231C46.3519 8.77715 46.8067 9.53857 47.4715 10.0892C48.1362 10.6398 48.9706 10.9462 49.8349 10.9571H49.7735ZM84.7045 10.9571C85.4496 10.9544 86.1777 10.7345 86.7989 10.3244C87.4201 9.9144 87.9074 9.33218 88.2006 8.64953C88.5784 7.73089 88.5777 6.70095 88.1989 5.78278C87.82 4.86461 87.0934 4.13216 86.1766 3.74407C85.7218 3.55101 85.2331 3.44968 84.7388 3.44594C84.2445 3.44219 83.7543 3.5361 83.2966 3.72225C82.8389 3.90839 82.4228 4.18308 82.0723 4.53044C81.7217 4.87779 81.4437 5.29093 81.2543 5.74599C80.8715 6.66231 80.8679 7.69233 81.2442 8.61131C81.6205 9.5303 82.3463 10.2637 83.2631 10.6514C83.7194 10.8445 84.2088 10.9483 84.7045 10.9571ZM67.2543 7.48811C68.2495 7.48409 69.2027 7.08833 69.9064 6.38706C70.61 5.68579 71.0071 4.73581 71.0112 3.74407C71.0132 3.25183 70.9174 2.76406 70.7293 2.3089C70.5413 1.85374 70.2646 1.4402 69.9153 1.09213C69.5661 0.744057 69.1511 0.46835 68.6944 0.28091C68.2377 0.0934708 67.7483 -0.0019901 67.2543 3.14476e-05C66.2935 0.0610541 65.392 0.484475 64.7332 1.18421C64.0744 1.88394 63.7077 2.80746 63.7077 3.76699C63.7077 4.72653 64.0744 5.65004 64.7332 6.34978C65.392 7.04951 66.2935 7.47293 67.2543 7.53396V7.48811ZM102.185 19.7135C102.719 19.1949 103.081 18.5265 103.223 17.7975C103.366 17.0685 103.282 16.3135 102.983 15.6333C102.803 15.1804 102.532 14.7694 102.185 14.426C101.466 13.7546 100.518 13.3809 99.5325 13.3809C98.5472 13.3809 97.5987 13.7546 96.8797 14.426C96.523 14.7689 96.2389 15.1794 96.044 15.6335C95.8491 16.0876 95.7474 16.5759 95.745 17.0698C95.7459 17.5647 95.8504 18.0539 96.0517 18.5063C96.2256 18.9696 96.5098 19.3838 96.8797 19.7135C97.222 20.0692 97.6343 20.3505 98.0908 20.5399C98.5473 20.7292 99.0381 20.8225 99.5325 20.8138C100.522 20.8258 101.476 20.4466 102.185 19.7594V19.7135ZM84.7965 59.0642C86.5446 56.7261 87.3879 54.4796 86.3299 52.2179C85.1185 49.4672 86.3299 48.749 87.0966 44.3936C87.5072 41.8657 88.4368 39.4493 89.8273 37.2958C91.2178 35.1422 93.0392 33.2978 95.1776 31.8779C100.223 28.6687 106.586 27.8435 114.483 28.2102C118.123 28.3587 121.69 29.2744 124.949 30.897C128.208 32.5197 131.085 34.8123 133.39 37.6238C137.04 43.0999 138.601 49.6975 137.791 56.2218C136.65 61.9683 134.378 67.4324 131.105 72.2982C128.836 75.3546 127.732 77.5857 127.655 79.5876C127.348 84.8904 128.376 89.9792 131.305 97.3603C131.402 97.6087 131.437 97.877 131.407 98.1419C131.377 98.4068 131.282 98.6603 131.13 98.8803C130.979 99.1003 130.776 99.2802 130.539 99.4041C130.303 99.5281 130.039 99.5924 129.771 99.5915H101.986C101.743 99.5811 101.505 99.5132 101.293 99.3932C101.082 99.2732 100.902 99.1046 100.768 98.9015C100.635 98.6984 100.552 98.4665 100.526 98.225C100.501 97.9836 100.533 97.7396 100.621 97.5132C100.986 96.6647 101.254 95.7778 101.419 94.8694C101.482 92.4058 101.017 89.957 100.054 87.687C99.7246 86.9799 99.1982 86.3822 98.5376 85.9649C97.8769 85.5477 97.1098 85.3285 96.3277 85.3336C93.6749 85.3336 91.3288 86.1282 87.2346 85.3336C85.1492 84.9515 85.2565 81.8188 85.7932 79.6182C86.3299 77.4176 84.5665 76.9744 84.5665 76.0728C84.5665 75.5685 84.3825 75.2017 85.6399 74.4376C83.3551 73.1998 84.1065 72.0231 84.5358 71.1215C86.0692 67.8206 84.3825 67.8665 83.7078 67.6067C83.0331 67.3469 81.239 66.9954 81.0396 65.5131C80.8403 64.0307 83.0484 61.3717 84.7965 59.0642ZM56.9345 65.5589C56.7352 67.0871 54.9258 67.3775 54.2664 67.6525C53.607 67.9276 51.9203 67.8665 53.4384 71.1673C53.8524 72.069 54.6191 73.2457 52.3343 74.4835C53.5917 75.2476 53.3617 75.6143 53.4077 76.1186C53.4077 77.0203 51.6596 77.4787 52.181 79.664C52.7023 81.8493 52.825 84.9974 50.7396 85.3794C46.6454 86.1282 44.2993 85.3794 41.6465 85.3794C40.8643 85.3744 40.0972 85.5935 39.4366 86.0108C38.7759 86.428 38.2496 87.0258 37.9203 87.7328C36.9577 90.0029 36.4924 92.4516 36.5556 94.9153C36.7203 95.8237 36.9878 96.7106 37.3529 97.559C37.4409 97.7854 37.4734 98.0294 37.4478 98.2709C37.4223 98.5123 37.3394 98.7442 37.206 98.9473C37.0726 99.1505 36.8925 99.319 36.6808 99.439C36.469 99.559 36.2316 99.627 35.9882 99.6373H8.18757C7.92 99.6382 7.65628 99.5739 7.41937 99.45C7.18247 99.326 6.97957 99.1462 6.82837 98.9262C6.67717 98.7062 6.58226 98.4527 6.55189 98.1878C6.52153 97.9228 6.55664 97.6545 6.65417 97.4062C9.62897 89.9792 10.7177 84.921 10.3497 79.5876C10.3497 77.5857 9.16895 75.324 6.89951 72.2982C3.62674 67.4324 1.35439 61.9683 0.213863 56.2218C-0.605276 49.7012 0.944991 43.1039 4.58407 37.6238C6.87889 34.8236 9.741 32.5376 12.9832 30.9154C16.2254 29.2933 19.7747 28.3714 23.399 28.2102C31.296 27.8435 37.6596 28.6687 42.7045 31.8779C44.843 33.2978 46.6644 35.1422 48.0549 37.2958C49.4454 39.4493 50.375 41.8657 50.7856 44.3936C51.5829 48.749 52.7637 49.4672 51.5523 52.2179C50.5556 54.4949 51.3989 56.7261 53.0857 59.0642C54.7724 61.4023 57.1185 64.1224 56.9345 65.5589ZM15.5326 49.0393C14.7848 49.0423 14.0546 49.2659 13.4341 49.6818C12.8136 50.0977 12.3306 50.6874 12.0458 51.3765C11.761 52.0656 11.6873 52.8232 11.834 53.554C11.9806 54.2848 12.341 54.956 12.8698 55.4829C13.3985 56.0099 14.072 56.3691 14.8053 56.5152C15.5385 56.6613 16.2988 56.5879 16.9903 56.3041C17.6817 56.0203 18.2734 55.5389 18.6907 54.9205C19.1081 54.3021 19.3324 53.5744 19.3354 52.8292C19.3355 51.8319 18.9412 50.8749 18.2379 50.1654C17.5347 49.456 16.5792 49.0514 15.5786 49.0393H15.5326ZM15.5326 38.3421C14.7935 38.3511 14.0736 38.5772 13.4629 38.9921C12.8522 39.407 12.3778 39.9921 12.0992 40.6744C11.8206 41.3566 11.7501 42.1056 11.8965 42.8275C12.0429 43.5495 12.3998 44.2124 12.9224 44.7332C13.445 45.2541 14.1102 45.6097 14.8346 45.7556C15.559 45.9016 16.3106 45.8313 16.9951 45.5536C17.6797 45.2759 18.2669 44.8032 18.6831 44.1946C19.0994 43.5859 19.3263 42.8685 19.3354 42.1319C19.3395 41.637 19.2454 41.1461 19.0586 40.6874C18.8718 40.2288 18.5959 39.8115 18.2469 39.4593C17.8978 39.1072 17.4824 38.8272 17.0245 38.6355C16.5666 38.4438 16.0753 38.344 15.5786 38.3421H15.5326ZM26.2664 49.0393C25.5186 49.0423 24.7885 49.2659 24.168 49.6818C23.5475 50.0977 23.0644 50.6874 22.7796 51.3765C22.4949 52.0656 22.4212 52.8232 22.5678 53.554C22.7144 54.2848 23.0748 54.956 23.6036 55.4829C24.1324 56.0099 24.8058 56.3691 25.5391 56.5152C26.2724 56.6613 27.0327 56.5879 27.7241 56.3041C28.4155 56.0203 29.0072 55.5389 29.4246 54.9205C29.8419 54.3021 30.0662 53.5744 30.0693 52.8292C30.0733 52.3342 29.9792 51.8433 29.7924 51.3847C29.6056 50.9261 29.3298 50.5087 28.9807 50.1566C28.6317 49.8045 28.2163 49.5245 27.7584 49.3328C27.3005 49.141 26.8091 49.0413 26.3124 49.0393H26.2664ZM26.2664 38.3421C25.5274 38.3511 24.8075 38.5772 24.1967 38.9921C23.586 39.407 23.1117 39.9921 22.833 40.6744C22.5544 41.3566 22.4839 42.1056 22.6303 42.8275C22.7767 43.5495 23.1336 44.2124 23.6562 44.7332C24.1788 45.2541 24.844 45.6097 25.5684 45.7556C26.2929 45.9016 27.0444 45.8313 27.729 45.5536C28.4135 45.2759 29.0007 44.8032 29.417 44.1946C29.8333 43.5859 30.0602 42.8685 30.0693 42.1319C30.0774 41.6359 29.9862 41.1432 29.8008 40.6827C29.6155 40.2222 29.3398 39.8032 28.99 39.4502C28.6401 39.0973 28.223 38.8175 27.7633 38.6272C27.3035 38.4369 26.8103 38.34 26.3124 38.3421H26.2664ZM37.0003 49.0393C36.2545 49.0513 35.529 49.2825 34.9146 49.7039C34.3002 50.1252 33.8243 50.718 33.5465 51.4078C33.2688 52.0976 33.2016 52.8537 33.3534 53.5815C33.5051 54.3092 33.8691 54.9761 34.3996 55.4985C34.9301 56.0209 35.6036 56.3755 36.3356 56.518C37.0676 56.6605 37.8255 56.5844 38.5142 56.2994C39.203 56.0143 39.792 55.5329 40.2074 54.9156C40.6227 54.2983 40.846 53.5725 40.8491 52.8292C40.8491 51.8241 40.4484 50.8601 39.7353 50.1493C39.0221 49.4386 38.0548 49.0393 37.0463 49.0393H37.0003ZM37.0003 45.8301C37.7471 45.8392 38.4798 45.6262 39.1046 45.2183C39.7294 44.8104 40.218 44.2261 40.508 43.5402C40.7981 42.8542 40.8763 42.0976 40.7328 41.3671C40.5894 40.6366 40.2306 39.9653 39.7025 39.4389C39.1743 38.9126 38.5007 38.5551 37.7677 38.4121C37.0347 38.2691 36.2755 38.3471 35.5872 38.6361C34.8989 38.9252 34.3126 39.4121 33.9034 40.0348C33.4941 40.6575 33.2803 41.3876 33.2894 42.1319C33.3093 43.1145 33.713 44.0505 34.4145 44.7411C35.1161 45.4317 36.0602 45.8224 37.0463 45.8301H37.0003ZM122.35 45.8301C123.096 45.8392 123.829 45.6262 124.454 45.2183C125.079 44.8104 125.567 44.2261 125.857 43.5402C126.147 42.8542 126.226 42.0976 126.082 41.3671C125.939 40.6366 125.58 39.9653 125.052 39.4389C124.524 38.9126 123.85 38.5551 123.117 38.4121C122.384 38.2691 121.625 38.3471 120.937 38.6361C120.248 38.9252 119.662 39.4121 119.253 40.0348C118.843 40.6575 118.63 41.3876 118.639 42.1319C118.655 43.1157 119.057 44.054 119.76 44.7454C120.462 45.4368 121.408 45.8263 122.396 45.8301H122.35ZM111.616 45.8301C112.363 45.8392 113.095 45.6262 113.72 45.2183C114.345 44.8104 114.834 44.2261 115.124 43.5402C115.414 42.8542 115.492 42.0976 115.348 41.3671C115.205 40.6366 114.846 39.9653 114.318 39.4389C113.79 38.9126 113.116 38.5551 112.383 38.4121C111.65 38.2691 110.891 38.3471 110.203 38.6361C109.514 38.9252 108.928 39.4121 108.519 40.0348C108.11 40.6575 107.896 41.3876 107.905 42.1319C107.913 43.1182 108.313 44.0611 109.017 44.7542C109.721 45.4473 110.672 45.8342 111.662 45.8301H111.616ZM100.882 56.5274C101.636 56.5333 102.374 56.315 103.002 55.9005C103.631 55.486 104.121 54.894 104.41 54.2004C104.699 53.5068 104.774 52.743 104.625 52.0067C104.476 51.2705 104.11 50.5953 103.573 50.0675C103.037 49.5397 102.355 49.1833 101.615 49.0439C100.874 48.9045 100.109 48.9884 99.4164 49.285C98.724 49.5815 98.1361 50.0772 97.7279 50.7085C97.3197 51.3399 97.1098 52.0783 97.1251 52.8292C97.1411 53.8251 97.5484 54.7751 98.2594 55.4751C98.9704 56.1751 99.9285 56.5694 100.928 56.5732L100.882 56.5274ZM100.882 45.8301C101.627 45.8301 102.355 45.6093 102.974 45.1958C103.593 44.7824 104.074 44.1949 104.357 43.5081C104.64 42.8213 104.712 42.0661 104.563 41.3386C104.414 40.6111 104.052 39.9441 103.522 39.4224C102.992 38.9007 102.318 38.5477 101.586 38.4085C100.854 38.2692 100.098 38.35 99.4121 38.6404C98.7265 38.9308 98.143 39.4178 97.7357 40.0395C97.3285 40.6612 97.1159 41.3896 97.1251 42.1319C97.1412 43.1237 97.55 44.0688 98.2623 44.7615C98.9746 45.4542 99.9327 45.8383 100.928 45.8301H100.882Z" fill="#185C9E"/>
</svg>
